<?xml version="1.0" encoding="UTF-8"?>
<!-- Created with Inkscape (http://www.inkscape.org/) -->
<svg width="93.98mm" height="36.17mm" version="1.1" viewBox="0 0 93.98 36.17" xmlns="http://www.w3.org/2000/svg" xmlns:cc="http://creativecommons.org/ns#" xmlns:dc="http://purl.org/dc/elements/1.1/" xmlns:osb="http://www.openswatchbook.org/uri/2009/osb" xmlns:rdf="http://www.w3.org/1999/02/22-rdf-syntax-ns#" xmlns:xlink="http://www.w3.org/1999/xlink">
 <defs>
  <pattern id="pattern6132" patternTransform="translate(-2.6754 -2.5706)" xlink:href="#Wavy"/>
  <pattern id="Wavy" width="30.066020" height="5.1805778" patternUnits="userSpaceOnUse">
   <path d="m7.597 0.061c-2.518-0.248-4.941 0.241-7.607 1.727v1.273c2.783-1.63 5.183-2.009 7.482-1.781 2.298 0.228 4.497 1.081 6.781 1.938 4.567 1.713 9.551 3.458 15.813-0.157l-4e-3 -1.273c-6.44 3.709-10.816 1.982-15.371 0.273-2.278-0.854-4.576-1.75-7.094-2z"/>
  </pattern>
 </defs>
 <metadata>
  <rdf:RDF>
   <cc:Work rdf:about="">
    <dc:format>image/svg+xml</dc:format>
    <dc:type rdf:resource="http://purl.org/dc/dcmitype/StillImage"/>
    <dc:title/>
   </cc:Work>
  </rdf:RDF>
 </metadata>
 <g transform="translate(-16.605 -44.115)">
  <path d="m33.448 49.265h60.294c6.4779 0 11.693 5.2151 11.693 11.693v2.4837c0 6.4779-5.2151 11.693-11.693 11.693h-60.294c-6.4779 0-11.693-5.2151-11.693-11.693v-2.4837c0-6.4779 5.2151-11.693 11.693-11.693z" fill="#0f0" stroke="url(#pattern6132)" stroke-width="10.3"/>
  <path d="m27.617 52.895h72.795v18.326h-72.795z" fill="#ab37c8" opacity=".891"/>
 </g>
 <g transform="translate(-16.605 -44.115)">
  <text transform="scale(.99769 1.0023)" x="38.45668" y="71.069534" fill="#ffffff" font-family="Antonio" font-size="21.41px" font-stretch="ultra-condensed" font-weight="bold" letter-spacing="0px" stroke-width=".53526" word-spacing="0px" style="font-feature-settings:normal;font-variant-caps:normal;font-variant-ligatures:normal;font-variant-numeric:normal;line-height:1.25" xml:space="preserve"><tspan x="38.45668" y="71.069534" fill="#ffffff" font-family="Antonio" font-size="21.41px" font-stretch="ultra-condensed" font-weight="bold" stroke-width=".53526" style="font-feature-settings:normal;font-variant-caps:normal;font-variant-ligatures:normal;font-variant-numeric:normal">JFD III</tspan></text>
 </g>
</svg>
